<svg width="264" height="42" viewBox="0 0 264 42" fill="none" xmlns="http://www.w3.org/2000/svg">
<!-- G -->
<rect x="6" y="6" width="6" height="6" fill="#B7B1B1"/>
<rect x="12" y="6" width="6" height="6" fill="#B7B1B1"/>
<rect x="18" y="6" width="6" height="6" fill="#B7B1B1"/>
<rect x="0" y="12" width="6" height="6" fill="#B7B1B1"/>
<rect x="0" y="18" width="6" height="6" fill="#B7B1B1"/>
<rect x="12" y="18" width="6" height="6" fill="#B7B1B1"/>
<rect x="18" y="18" width="6" height="6" fill="#B7B1B1"/>
<rect x="0" y="24" width="6" height="6" fill="#B7B1B1"/>
<rect x="18" y="24" width="6" height="6" fill="#B7B1B1"/>
<rect x="6" y="30" width="6" height="6" fill="#B7B1B1"/>
<rect x="12" y="30" width="6" height="6" fill="#B7B1B1"/>
<rect x="18" y="30" width="6" height="6" fill="#B7B1B1"/>
<!-- R -->
<rect x="30" y="6" width="6" height="6" fill="#B7B1B1"/>
<rect x="36" y="6" width="6" height="6" fill="#B7B1B1"/>
<rect x="42" y="6" width="6" height="6" fill="#B7B1B1"/>
<rect x="30" y="12" width="6" height="6" fill="#B7B1B1"/>
<rect x="36" y="12" width="6" height="6" fill="#4B4646"/>
<rect x="42" y="12" width="6" height="6" fill="#4B4646"/>
<rect x="48" y="12" width="6" height="6" fill="#B7B1B1"/>
<rect x="30" y="18" width="6" height="6" fill="#B7B1B1"/>
<rect x="36" y="18" width="6" height="6" fill="#B7B1B1"/>
<rect x="42" y="18" width="6" height="6" fill="#B7B1B1"/>
<rect x="30" y="24" width="6" height="6" fill="#B7B1B1"/>
<rect x="42" y="24" width="6" height="6" fill="#B7B1B1"/>
<rect x="30" y="30" width="6" height="6" fill="#B7B1B1"/>
<rect x="48" y="30" width="6" height="6" fill="#B7B1B1"/>
<!-- A -->
<rect x="66" y="6" width="6" height="6" fill="#B7B1B1"/>
<rect x="72" y="6" width="6" height="6" fill="#B7B1B1"/>
<rect x="60" y="12" width="6" height="6" fill="#B7B1B1"/>
<rect x="66" y="12" width="6" height="6" fill="#4B4646"/>
<rect x="72" y="12" width="6" height="6" fill="#4B4646"/>
<rect x="78" y="12" width="6" height="6" fill="#B7B1B1"/>
<rect x="60" y="18" width="6" height="6" fill="#B7B1B1"/>
<rect x="66" y="18" width="6" height="6" fill="#B7B1B1"/>
<rect x="72" y="18" width="6" height="6" fill="#B7B1B1"/>
<rect x="78" y="18" width="6" height="6" fill="#B7B1B1"/>
<rect x="60" y="24" width="6" height="6" fill="#B7B1B1"/>
<rect x="78" y="24" width="6" height="6" fill="#B7B1B1"/>
<rect x="60" y="30" width="6" height="6" fill="#B7B1B1"/>
<rect x="78" y="30" width="6" height="6" fill="#B7B1B1"/>
<!-- C -->
<rect x="96" y="6" width="6" height="6" fill="#B7B1B1"/>
<rect x="102" y="6" width="6" height="6" fill="#B7B1B1"/>
<rect x="108" y="6" width="6" height="6" fill="#B7B1B1"/>
<rect x="90" y="12" width="6" height="6" fill="#B7B1B1"/>
<rect x="90" y="18" width="6" height="6" fill="#B7B1B1"/>
<rect x="90" y="24" width="6" height="6" fill="#B7B1B1"/>
<rect x="96" y="30" width="6" height="6" fill="#B7B1B1"/>
<rect x="102" y="30" width="6" height="6" fill="#B7B1B1"/>
<rect x="108" y="30" width="6" height="6" fill="#B7B1B1"/>
<!-- E -->
<rect x="120" y="6" width="6" height="6" fill="#B7B1B1"/>
<rect x="126" y="6" width="6" height="6" fill="#B7B1B1"/>
<rect x="132" y="6" width="6" height="6" fill="#B7B1B1"/>
<rect x="138" y="6" width="6" height="6" fill="#B7B1B1"/>
<rect x="120" y="12" width="6" height="6" fill="#B7B1B1"/>
<rect x="120" y="18" width="6" height="6" fill="#B7B1B1"/>
<rect x="126" y="18" width="6" height="6" fill="#B7B1B1"/>
<rect x="132" y="18" width="6" height="6" fill="#B7B1B1"/>
<rect x="120" y="24" width="6" height="6" fill="#B7B1B1"/>
<rect x="120" y="30" width="6" height="6" fill="#B7B1B1"/>
<rect x="126" y="30" width="6" height="6" fill="#B7B1B1"/>
<rect x="132" y="30" width="6" height="6" fill="#B7B1B1"/>
<rect x="138" y="30" width="6" height="6" fill="#B7B1B1"/>
<!-- C (bright) -->
<rect x="156" y="6" width="6" height="6" fill="#F1ECEC"/>
<rect x="162" y="6" width="6" height="6" fill="#F1ECEC"/>
<rect x="168" y="6" width="6" height="6" fill="#F1ECEC"/>
<rect x="150" y="12" width="6" height="6" fill="#F1ECEC"/>
<rect x="150" y="18" width="6" height="6" fill="#F1ECEC"/>
<rect x="150" y="24" width="6" height="6" fill="#F1ECEC"/>
<rect x="156" y="30" width="6" height="6" fill="#F1ECEC"/>
<rect x="162" y="30" width="6" height="6" fill="#F1ECEC"/>
<rect x="168" y="30" width="6" height="6" fill="#F1ECEC"/>
<!-- L (bright) -->
<rect x="180" y="6" width="6" height="6" fill="#F1ECEC"/>
<rect x="180" y="12" width="6" height="6" fill="#F1ECEC"/>
<rect x="180" y="18" width="6" height="6" fill="#F1ECEC"/>
<rect x="180" y="24" width="6" height="6" fill="#F1ECEC"/>
<rect x="180" y="30" width="6" height="6" fill="#F1ECEC"/>
<rect x="186" y="30" width="6" height="6" fill="#F1ECEC"/>
<rect x="192" y="30" width="6" height="6" fill="#F1ECEC"/>
<!-- A (bright) -->
<rect x="210" y="6" width="6" height="6" fill="#F1ECEC"/>
<rect x="216" y="6" width="6" height="6" fill="#F1ECEC"/>
<rect x="204" y="12" width="6" height="6" fill="#F1ECEC"/>
<rect x="210" y="12" width="6" height="6" fill="#4B4646"/>
<rect x="216" y="12" width="6" height="6" fill="#4B4646"/>
<rect x="222" y="12" width="6" height="6" fill="#F1ECEC"/>
<rect x="204" y="18" width="6" height="6" fill="#F1ECEC"/>
<rect x="210" y="18" width="6" height="6" fill="#F1ECEC"/>
<rect x="216" y="18" width="6" height="6" fill="#F1ECEC"/>
<rect x="222" y="18" width="6" height="6" fill="#F1ECEC"/>
<rect x="204" y="24" width="6" height="6" fill="#F1ECEC"/>
<rect x="222" y="24" width="6" height="6" fill="#F1ECEC"/>
<rect x="204" y="30" width="6" height="6" fill="#F1ECEC"/>
<rect x="222" y="30" width="6" height="6" fill="#F1ECEC"/>
<!-- W (bright) -->
<rect x="234" y="6" width="6" height="6" fill="#F1ECEC"/>
<rect x="258" y="6" width="6" height="6" fill="#F1ECEC"/>
<rect x="234" y="12" width="6" height="6" fill="#F1ECEC"/>
<rect x="258" y="12" width="6" height="6" fill="#F1ECEC"/>
<rect x="234" y="18" width="6" height="6" fill="#F1ECEC"/>
<rect x="246" y="18" width="6" height="6" fill="#F1ECEC"/>
<rect x="258" y="18" width="6" height="6" fill="#F1ECEC"/>
<rect x="234" y="24" width="6" height="6" fill="#F1ECEC"/>
<rect x="246" y="24" width="6" height="6" fill="#F1ECEC"/>
<rect x="258" y="24" width="6" height="6" fill="#F1ECEC"/>
<rect x="240" y="30" width="6" height="6" fill="#F1ECEC"/>
<rect x="252" y="30" width="6" height="6" fill="#F1ECEC"/>
</svg>